<svg width="64" height="64" viewBox="0 0 64 64" fill="none" xmlns="http://www.w3.org/2000/svg">
<path fill-rule="evenodd" clip-rule="evenodd" d="M19.907 2.8425C23.035 2.6985 24.0323 2.6665 32.0003 2.6665C39.9683 2.6665 40.9657 2.70117 44.091 2.8425C47.2163 2.98384 49.3497 3.4825 51.2163 4.20517C53.171 4.94384 54.9443 6.0985 56.411 7.59184C57.9043 9.05584 59.0563 10.8265 59.7923 12.7838C60.5177 14.6505 61.0137 16.7838 61.1577 19.9038C61.3017 23.0372 61.3337 24.0345 61.3337 31.9998C61.3337 39.9678 61.299 40.9652 61.1577 44.0932C61.0163 47.2132 60.5177 49.3465 59.7923 51.2132C59.0563 53.1708 57.9024 54.9444 56.411 56.4105C54.9443 57.9038 53.171 59.0558 51.2163 59.7918C49.3497 60.5172 47.2163 61.0132 44.0963 61.1572C40.9657 61.3012 39.9683 61.3332 32.0003 61.3332C24.0323 61.3332 23.035 61.2985 19.907 61.1572C16.787 61.0158 14.6537 60.5172 12.787 59.7918C10.8294 59.0557 9.05585 57.9018 7.58966 56.4105C6.09734 54.9456 4.9425 53.1729 4.20566 51.2158C3.48299 49.3492 2.98699 47.2158 2.84299 44.0958C2.69899 40.9625 2.66699 39.9652 2.66699 31.9998C2.66699 24.0318 2.70166 23.0345 2.84299 19.9092C2.98433 16.7838 3.48299 14.6505 4.20566 12.7838C4.94359 10.8267 6.09931 9.05401 7.59232 7.58917C9.05643 6.09717 10.8283 4.94235 12.7843 4.20517C14.651 3.4825 16.7843 2.9865 19.9043 2.8425H19.907ZM43.8537 8.1225C40.7603 7.98117 39.8323 7.95184 32.0003 7.95184C24.1683 7.95184 23.2403 7.98117 20.147 8.1225C17.2857 8.25317 15.7337 8.7305 14.699 9.13317C13.331 9.6665 12.3523 10.2985 11.3257 11.3252C10.3524 12.272 9.60347 13.4246 9.13366 14.6985C8.73099 15.7332 8.25366 17.2852 8.12299 20.1465C7.98166 23.2398 7.95233 24.1678 7.95233 31.9998C7.95233 39.8318 7.98166 40.7598 8.12299 43.8532C8.25366 46.7145 8.73099 48.2665 9.13366 49.3012C9.60299 50.5732 10.3523 51.7278 11.3257 52.6745C12.2723 53.6478 13.427 54.3972 14.699 54.8665C15.7337 55.2692 17.2857 55.7465 20.147 55.8772C23.2403 56.0185 24.1657 56.0478 32.0003 56.0478C39.835 56.0478 40.7603 56.0185 43.8537 55.8772C46.715 55.7465 48.267 55.2692 49.3017 54.8665C50.6697 54.3332 51.6483 53.7012 52.675 52.6745C53.6483 51.7278 54.3977 50.5732 54.867 49.3012C55.2697 48.2665 55.747 46.7145 55.8777 43.8532C56.019 40.7598 56.0483 39.8318 56.0483 31.9998C56.0483 24.1678 56.019 23.2398 55.8777 20.1465C55.747 17.2852 55.2697 15.7332 54.867 14.6985C54.3337 13.3305 53.7017 12.3518 52.675 11.3252C51.7281 10.352 50.5755 9.60307 49.3017 9.13317C48.267 8.7305 46.715 8.25317 43.8537 8.1225V8.1225ZM28.2537 41.0425C30.3461 41.9135 32.676 42.0311 34.8455 41.3751C37.0149 40.7191 38.8894 39.3303 40.1486 37.4458C41.4079 35.5614 41.9738 33.2982 41.7498 31.0428C41.5258 28.7874 40.5257 26.6798 38.9203 25.0798C37.897 24.0571 36.6596 23.274 35.2972 22.7869C33.9349 22.2998 32.4815 22.1208 31.0416 22.2628C29.6018 22.4048 28.2114 22.8643 26.9705 23.6082C25.7295 24.3521 24.669 25.3618 23.8651 26.5648C23.0613 27.7677 22.5342 29.1339 22.3217 30.5651C22.1092 31.9962 22.2167 33.4566 22.6364 34.8412C23.0561 36.2258 23.7776 37.5001 24.7489 38.5724C25.7202 39.6447 26.9172 40.4883 28.2537 41.0425ZM21.339 21.3385C22.7391 19.9384 24.4012 18.8278 26.2305 18.0701C28.0597 17.3124 30.0203 16.9224 32.0003 16.9224C33.9803 16.9224 35.9409 17.3124 37.7702 18.0701C39.5995 18.8278 41.2616 19.9384 42.6617 21.3385C44.0617 22.7386 45.1723 24.4007 45.93 26.23C46.6877 28.0592 47.0777 30.0198 47.0777 31.9998C47.0777 33.9798 46.6877 35.9404 45.93 37.7697C45.1723 39.599 44.0617 41.2611 42.6617 42.6612C39.8341 45.4887 35.9991 47.0772 32.0003 47.0772C28.0015 47.0772 24.1666 45.4887 21.339 42.6612C18.5114 39.8336 16.9229 35.9986 16.9229 31.9998C16.9229 28.0011 18.5114 24.1661 21.339 21.3385V21.3385ZM50.4217 19.1678C50.7686 18.8406 51.0464 18.447 51.2385 18.0104C51.4306 17.5739 51.5331 17.1032 51.5401 16.6263C51.5471 16.1494 51.4582 15.676 51.2789 15.234C51.0996 14.792 50.8335 14.3905 50.4962 14.0533C50.159 13.716 49.7575 13.4499 49.3155 13.2706C48.8735 13.0912 48.4001 13.0024 47.9232 13.0094C47.4463 13.0163 46.9756 13.1189 46.5391 13.311C46.1025 13.5031 45.7089 13.7809 45.3817 14.1278C44.7452 14.8026 44.3967 15.6988 44.4102 16.6263C44.4237 17.5538 44.7982 18.4395 45.4541 19.0954C46.11 19.7513 46.9957 20.1258 47.9232 20.1393C48.8507 20.1528 49.7469 19.8043 50.4217 19.1678V19.1678Z" fill="white"/>
</svg>
