<svg width="64" height="64" viewBox="0 0 64 64" fill="none" xmlns="http://www.w3.org/2000/svg">
<path fill-rule="evenodd" clip-rule="evenodd" d="M2.66699 7.56784C2.66699 6.26793 3.18338 5.02126 4.10256 4.10208C5.02174 3.1829 6.26841 2.66651 7.56833 2.66651H56.427C57.0712 2.66546 57.7093 2.79148 58.3047 3.03735C58.9002 3.28323 59.4412 3.64414 59.897 4.09941C60.3528 4.55468 60.7143 5.09537 60.9608 5.69054C61.2073 6.2857 61.334 6.92364 61.3337 7.56784V56.4265C61.3344 57.0708 61.208 57.709 60.9619 58.3044C60.7157 58.8999 60.3545 59.4409 59.8991 59.8967C59.4436 60.3524 58.9027 60.7138 58.3074 60.9603C57.7121 61.2068 57.074 61.3335 56.4297 61.3332H7.56833C6.92445 61.3332 6.28688 61.2063 5.69205 60.9598C5.09722 60.7133 4.55678 60.3521 4.10162 59.8967C3.64645 59.4412 3.28548 58.9006 3.03932 58.3056C2.79316 57.7107 2.66664 57.073 2.66699 56.4292V7.56784ZM25.8883 25.0345H33.8323V29.0238C34.979 26.7305 37.9123 24.6665 42.3203 24.6665C50.771 24.6665 52.7737 29.2345 52.7737 37.6158V53.1412H44.2217V39.5252C44.2217 34.7518 43.075 32.0585 40.163 32.0585C36.123 32.0585 34.443 34.9625 34.443 39.5252V53.1412H25.8883V25.0345ZM11.2217 52.7758H19.7763V24.6665H11.2217V52.7732V52.7758ZM21.0003 15.4985C21.0165 16.231 20.8861 16.9593 20.617 17.6407C20.3478 18.3221 19.9453 18.9429 19.433 19.4666C18.9206 19.9903 18.3089 20.4064 17.6335 20.6905C16.9582 20.9746 16.233 21.121 15.5003 21.121C14.7677 21.121 14.0424 20.9746 13.3671 20.6905C12.6918 20.4064 12.08 19.9903 11.5677 19.4666C11.0554 18.9429 10.6528 18.3221 10.3837 17.6407C10.1145 16.9593 9.9842 16.231 10.0003 15.4985C10.032 14.0608 10.6254 12.6926 11.6534 11.687C12.6814 10.6814 14.0623 10.1183 15.5003 10.1183C16.9384 10.1183 18.3193 10.6814 19.3473 11.687C20.3753 12.6926 20.9687 14.0608 21.0003 15.4985V15.4985Z" fill="white"/>
</svg>
