<svg width="64" height="64" viewBox="0 0 64 64" fill="none" xmlns="http://www.w3.org/2000/svg">
<g clip-path="url(#clip0_292_477)">
<path d="M11.686 0C5.21248 0 0 5.21248 0 11.686V52.314C0 58.7876 5.21248 64.0001 11.686 64.0001H33.706V38.98H27.0901V29.972H33.706V22.276C33.706 16.2296 37.6151 10.678 46.62 10.678C50.266 10.678 52.962 11.028 52.962 11.028L52.75 19.4401C52.75 19.4401 50.0004 19.4141 47 19.4141C43.7527 19.4141 43.232 20.9103 43.232 23.3941V29.9721H53.008L52.582 38.9801H43.232V64.0001H52.314C58.7875 64.0001 64 58.7877 64 52.3141V11.6861C64 5.21254 58.7875 6.4e-05 52.314 6.4e-05H11.686L11.686 0Z" fill="white"/>
</g>
<defs>
<clipPath id="clip0_292_477">
<rect width="64" height="64" fill="white"/>
</clipPath>
</defs>
</svg>
