<svg width="478" height="126" viewBox="0 0 478 126" fill="none" xmlns="http://www.w3.org/2000/svg">
<g filter="url(#filter0_di_293_228)">
<rect x="30.1318" y="10" width="417.085" height="66" rx="33" fill="#FF4E00"/>
<rect x="31.1318" y="11" width="415.085" height="64" rx="32" stroke="#F7875A" stroke-width="2"/>
</g>
<g filter="url(#filter1_di_293_228)">
<rect x="30.1318" y="10" width="417.085" height="66" rx="33" fill="url(#paint0_linear_293_228)" shape-rendering="crispEdges"/>
<rect x="32.1318" y="12" width="413.085" height="62" rx="31" stroke="url(#paint1_linear_293_228)" stroke-width="4" shape-rendering="crispEdges"/>
</g>
<g filter="url(#filter2_i_293_228)">
<path d="M107.553 42.44C107.553 40.36 108.003 38.51 108.903 36.89C109.803 35.25 111.053 33.98 112.653 33.08C114.273 32.16 116.103 31.7 118.143 31.7C120.643 31.7 122.783 32.36 124.563 33.68C126.343 35 127.533 36.8 128.133 39.08H122.493C122.073 38.2 121.473 37.53 120.693 37.07C119.933 36.61 119.063 36.38 118.083 36.38C116.503 36.38 115.223 36.93 114.243 38.03C113.263 39.13 112.773 40.6 112.773 42.44C112.773 44.28 113.263 45.75 114.243 46.85C115.223 47.95 116.503 48.5 118.083 48.5C119.063 48.5 119.933 48.27 120.693 47.81C121.473 47.35 122.073 46.68 122.493 45.8H128.133C127.533 48.08 126.343 49.88 124.563 51.2C122.783 52.5 120.643 53.15 118.143 53.15C116.103 53.15 114.273 52.7 112.653 51.8C111.053 50.88 109.803 49.61 108.903 47.99C108.003 46.37 107.553 44.52 107.553 42.44ZM136.405 30.8V53H131.275V30.8H136.405ZM142.703 34.52C141.803 34.52 141.063 34.26 140.483 33.74C139.923 33.2 139.643 32.54 139.643 31.76C139.643 30.96 139.923 30.3 140.483 29.78C141.063 29.24 141.803 28.97 142.703 28.97C143.583 28.97 144.303 29.24 144.863 29.78C145.443 30.3 145.733 30.96 145.733 31.76C145.733 32.54 145.443 33.2 144.863 33.74C144.303 34.26 143.583 34.52 142.703 34.52ZM145.253 36.26V53H140.123V36.26H145.253ZM147.95 44.63C147.95 42.89 148.3 41.37 149 40.07C149.72 38.77 150.71 37.77 151.97 37.07C153.25 36.37 154.71 36.02 156.35 36.02C158.45 36.02 160.2 36.57 161.6 37.67C163.02 38.77 163.95 40.32 164.39 42.32H158.93C158.47 41.04 157.58 40.4 156.26 40.4C155.32 40.4 154.57 40.77 154.01 41.51C153.45 42.23 153.17 43.27 153.17 44.63C153.17 45.99 153.45 47.04 154.01 47.78C154.57 48.5 155.32 48.86 156.26 48.86C157.58 48.86 158.47 48.22 158.93 46.94H164.39C163.95 48.9 163.02 50.44 161.6 51.56C160.18 52.68 158.43 53.24 156.35 53.24C154.71 53.24 153.25 52.89 151.97 52.19C150.71 51.49 149.72 50.49 149 49.19C148.3 47.89 147.95 46.37 147.95 44.63ZM177.364 53L172.264 45.98V53H167.134V30.8H172.264V43.07L177.334 36.26H183.664L176.704 44.66L183.724 53H177.364ZM210.277 31.94V53H205.147V44.33H197.167V53H192.037V31.94H197.167V40.19H205.147V31.94H210.277ZM229.76 44.36C229.76 44.84 229.73 45.34 229.67 45.86H218.06C218.14 46.9 218.47 47.7 219.05 48.26C219.65 48.8 220.38 49.07 221.24 49.07C222.52 49.07 223.41 48.53 223.91 47.45H229.37C229.09 48.55 228.58 49.54 227.84 50.42C227.12 51.3 226.21 51.99 225.11 52.49C224.01 52.99 222.78 53.24 221.42 53.24C219.78 53.24 218.32 52.89 217.04 52.19C215.76 51.49 214.76 50.49 214.04 49.19C213.32 47.89 212.96 46.37 212.96 44.63C212.96 42.89 213.31 41.37 214.01 40.07C214.73 38.77 215.73 37.77 217.01 37.07C218.29 36.37 219.76 36.02 221.42 36.02C223.04 36.02 224.48 36.36 225.74 37.04C227 37.72 227.98 38.69 228.68 39.95C229.4 41.21 229.76 42.68 229.76 44.36ZM224.51 43.01C224.51 42.13 224.21 41.43 223.61 40.91C223.01 40.39 222.26 40.13 221.36 40.13C220.5 40.13 219.77 40.38 219.17 40.88C218.59 41.38 218.23 42.09 218.09 43.01H224.51ZM237.596 39.05C238.196 38.13 238.946 37.41 239.846 36.89C240.746 36.35 241.746 36.08 242.846 36.08V41.51H241.436C240.156 41.51 239.196 41.79 238.556 42.35C237.916 42.89 237.596 43.85 237.596 45.23V53H232.466V36.26H237.596V39.05ZM261.078 44.36C261.078 44.84 261.048 45.34 260.988 45.86H249.378C249.458 46.9 249.788 47.7 250.368 48.26C250.968 48.8 251.698 49.07 252.558 49.07C253.838 49.07 254.728 48.53 255.228 47.45H260.688C260.408 48.55 259.898 49.54 259.158 50.42C258.438 51.3 257.528 51.99 256.428 52.49C255.328 52.99 254.098 53.24 252.738 53.24C251.098 53.24 249.638 52.89 248.358 52.19C247.078 51.49 246.078 50.49 245.358 49.19C244.638 47.89 244.278 46.37 244.278 44.63C244.278 42.89 244.628 41.37 245.328 40.07C246.048 38.77 247.048 37.77 248.328 37.07C249.608 36.37 251.078 36.02 252.738 36.02C254.358 36.02 255.798 36.36 257.058 37.04C258.318 37.72 259.298 38.69 259.998 39.95C260.718 41.21 261.078 42.68 261.078 44.36ZM255.828 43.01C255.828 42.13 255.528 41.43 254.928 40.91C254.328 40.39 253.578 40.13 252.678 40.13C251.818 40.13 251.088 40.38 250.488 40.88C249.908 41.38 249.548 42.09 249.408 43.01H255.828ZM279.472 48.65V53H276.862C275.002 53 273.552 52.55 272.512 51.65C271.472 50.73 270.952 49.24 270.952 47.18V40.52H268.912V36.26H270.952V32.18H276.082V36.26H279.442V40.52H276.082V47.24C276.082 47.74 276.202 48.1 276.442 48.32C276.682 48.54 277.082 48.65 277.642 48.65H279.472ZM289.95 53.24C288.31 53.24 286.83 52.89 285.51 52.19C284.21 51.49 283.18 50.49 282.42 49.19C281.68 47.89 281.31 46.37 281.31 44.63C281.31 42.91 281.69 41.4 282.45 40.1C283.21 38.78 284.25 37.77 285.57 37.07C286.89 36.37 288.37 36.02 290.01 36.02C291.65 36.02 293.13 36.37 294.45 37.07C295.77 37.77 296.81 38.78 297.57 40.1C298.33 41.4 298.71 42.91 298.71 44.63C298.71 46.35 298.32 47.87 297.54 49.19C296.78 50.49 295.73 51.49 294.39 52.19C293.07 52.89 291.59 53.24 289.95 53.24ZM289.95 48.8C290.93 48.8 291.76 48.44 292.44 47.72C293.14 47 293.49 45.97 293.49 44.63C293.49 43.29 293.15 42.26 292.47 41.54C291.81 40.82 290.99 40.46 290.01 40.46C289.01 40.46 288.18 40.82 287.52 41.54C286.86 42.24 286.53 43.27 286.53 44.63C286.53 45.97 286.85 47 287.49 47.72C288.15 48.44 288.97 48.8 289.95 48.8ZM320.989 31.94V46.28C320.989 48.5 320.359 50.21 319.099 51.41C317.859 52.61 316.179 53.21 314.059 53.21C311.839 53.21 310.059 52.58 308.719 51.32C307.379 50.06 306.709 48.27 306.709 45.95H311.809C311.809 46.83 311.989 47.5 312.349 47.96C312.709 48.4 313.229 48.62 313.909 48.62C314.529 48.62 315.009 48.42 315.349 48.02C315.689 47.62 315.859 47.04 315.859 46.28V31.94H320.989ZM332.752 53.24C331.112 53.24 329.632 52.89 328.312 52.19C327.012 51.49 325.982 50.49 325.222 49.19C324.482 47.89 324.112 46.37 324.112 44.63C324.112 42.91 324.492 41.4 325.252 40.1C326.012 38.78 327.052 37.77 328.372 37.07C329.692 36.37 331.172 36.02 332.812 36.02C334.452 36.02 335.932 36.37 337.252 37.07C338.572 37.77 339.612 38.78 340.372 40.1C341.132 41.4 341.512 42.91 341.512 44.63C341.512 46.35 341.122 47.87 340.342 49.19C339.582 50.49 338.532 51.49 337.192 52.19C335.872 52.89 334.392 53.24 332.752 53.24ZM332.752 48.8C333.732 48.8 334.562 48.44 335.242 47.72C335.942 47 336.292 45.97 336.292 44.63C336.292 43.29 335.952 42.26 335.272 41.54C334.612 40.82 333.792 40.46 332.812 40.46C331.812 40.46 330.982 40.82 330.322 41.54C329.662 42.24 329.332 43.27 329.332 44.63C329.332 45.97 329.652 47 330.292 47.72C330.952 48.44 331.772 48.8 332.752 48.8ZM346.814 34.52C345.914 34.52 345.174 34.26 344.594 33.74C344.034 33.2 343.754 32.54 343.754 31.76C343.754 30.96 344.034 30.3 344.594 29.78C345.174 29.24 345.914 28.97 346.814 28.97C347.694 28.97 348.414 29.24 348.974 29.78C349.554 30.3 349.844 30.96 349.844 31.76C349.844 32.54 349.554 33.2 348.974 33.74C348.414 34.26 347.694 34.52 346.814 34.52ZM349.364 36.26V53H344.234V36.26H349.364ZM363.282 36.08C365.242 36.08 366.802 36.72 367.962 38C369.142 39.26 369.732 41 369.732 43.22V53H364.632V43.91C364.632 42.79 364.342 41.92 363.762 41.3C363.182 40.68 362.402 40.37 361.422 40.37C360.442 40.37 359.662 40.68 359.082 41.3C358.502 41.92 358.212 42.79 358.212 43.91V53H353.082V36.26H358.212V38.48C358.732 37.74 359.432 37.16 360.312 36.74C361.192 36.3 362.182 36.08 363.282 36.08Z" fill="white"/>
</g>
<path d="M108.903 36.89L109.341 37.1328L109.342 37.1305L108.903 36.89ZM112.653 33.08L112.899 33.5158L112.9 33.5148L112.653 33.08ZM124.563 33.68L124.861 33.2784L124.861 33.2784L124.563 33.68ZM128.133 39.08V39.58H128.782L128.617 38.9528L128.133 39.08ZM122.493 39.08L122.042 39.2954L122.178 39.58H122.493V39.08ZM120.693 37.07L120.435 37.4978L120.439 37.5007L120.693 37.07ZM114.243 38.03L114.617 38.3626L114.617 38.3626L114.243 38.03ZM120.693 47.81L120.439 47.3793L120.435 47.3822L120.693 47.81ZM122.493 45.8V45.3H122.178L122.042 45.5846L122.493 45.8ZM128.133 45.8L128.617 45.9272L128.782 45.3H128.133V45.8ZM124.563 51.2L124.858 51.6038L124.861 51.6016L124.563 51.2ZM112.653 51.8L112.404 52.2335L112.411 52.2371L112.653 51.8ZM108.903 47.99L109.341 47.7472L109.341 47.7472L108.903 47.99ZM108.053 42.44C108.053 40.4344 108.487 38.6698 109.341 37.1328L108.466 36.6472C107.52 38.3502 107.053 40.2856 107.053 42.44H108.053ZM109.342 37.1305C110.198 35.5707 111.382 34.3691 112.899 33.5158L112.408 32.6442C110.725 33.5909 109.409 34.9293 108.465 36.6495L109.342 37.1305ZM112.9 33.5148C114.438 32.6415 116.182 32.2 118.143 32.2V31.2C116.025 31.2 114.109 31.6785 112.407 32.6452L112.9 33.5148ZM118.143 32.2C120.551 32.2 122.583 32.8336 124.266 34.0816L124.861 33.2784C122.984 31.8864 120.736 31.2 118.143 31.2V32.2ZM124.266 34.0816C125.948 35.3294 127.077 37.0296 127.65 39.2072L128.617 38.9528C127.99 36.5704 126.739 34.6706 124.861 33.2784L124.266 34.0816ZM128.133 38.58H122.493V39.58H128.133V38.58ZM122.945 38.8646C122.485 37.9021 121.82 37.1538 120.947 36.6393L120.439 37.5007C121.127 37.9062 121.662 38.4979 122.042 39.2954L122.945 38.8646ZM120.952 36.6422C120.106 36.1302 119.145 35.88 118.083 35.88V36.88C118.982 36.88 119.761 37.0898 120.435 37.4977L120.952 36.6422ZM118.083 35.88C116.373 35.88 114.953 36.4825 113.87 37.6974L114.617 38.3626C115.494 37.3775 116.634 36.88 118.083 36.88V35.88ZM113.87 37.6974C112.79 38.9102 112.273 40.5091 112.273 42.44H113.273C113.273 40.6909 113.737 39.3498 114.617 38.3626L113.87 37.6974ZM112.273 42.44C112.273 44.3709 112.79 45.9698 113.87 47.1826L114.617 46.5174C113.737 45.5302 113.273 44.1891 113.273 42.44H112.273ZM113.87 47.1826C114.953 48.3975 116.373 49 118.083 49V48C116.634 48 115.494 47.5025 114.617 46.5174L113.87 47.1826ZM118.083 49C119.145 49 120.106 48.7498 120.952 48.2377L120.435 47.3822C119.761 47.7902 118.982 48 118.083 48V49ZM120.947 48.2407C121.82 47.7262 122.485 46.9779 122.945 46.0154L122.042 45.5846C121.662 46.3821 121.127 46.9738 120.439 47.3793L120.947 48.2407ZM122.493 46.3H128.133V45.3H122.493V46.3ZM127.65 45.6728C127.077 47.8504 125.948 49.5506 124.266 50.7984L124.861 51.6016C126.739 50.2094 127.99 48.3096 128.617 45.9272L127.65 45.6728ZM124.269 50.7962C122.585 52.0255 120.552 52.65 118.143 52.65V53.65C120.735 53.65 122.982 52.9745 124.858 51.6038L124.269 50.7962ZM118.143 52.65C116.18 52.65 114.435 52.2176 112.896 51.3629L112.411 52.2371C114.112 53.1824 116.027 53.65 118.143 53.65V52.65ZM112.903 51.3665C111.382 50.492 110.197 49.2881 109.341 47.7472L108.466 48.2328C109.41 49.9319 110.725 51.268 112.404 52.2335L112.903 51.3665ZM109.341 47.7472C108.487 46.2102 108.053 44.4456 108.053 42.44H107.053C107.053 44.5944 107.52 46.5298 108.466 48.2328L109.341 47.7472ZM136.405 30.8H136.905V30.3H136.405V30.8ZM136.405 53V53.5H136.905V53H136.405ZM131.275 53H130.775V53.5H131.275V53ZM131.275 30.8V30.3H130.775V30.8H131.275ZM135.905 30.8V53H136.905V30.8H135.905ZM136.405 52.5H131.275V53.5H136.405V52.5ZM131.775 53V30.8H130.775V53H131.775ZM131.275 31.3H136.405V30.3H131.275V31.3ZM140.483 33.74L140.136 34.0999L140.142 34.1062L140.149 34.1123L140.483 33.74ZM140.483 29.78L140.823 30.1464L140.823 30.1459L140.483 29.78ZM144.863 29.78L144.516 30.1399L144.522 30.1462L144.529 30.1523L144.863 29.78ZM144.863 33.74L145.203 34.1064L145.203 34.1059L144.863 33.74ZM145.253 36.26H145.753V35.76H145.253V36.26ZM145.253 53V53.5H145.753V53H145.253ZM140.123 53H139.623V53.5H140.123V53ZM140.123 36.26V35.76H139.623V36.26H140.123ZM142.703 34.02C141.905 34.02 141.291 33.7928 140.816 33.3677L140.149 34.1123C140.835 34.7272 141.7 35.02 142.703 35.02V34.02ZM140.83 33.3801C140.368 32.9346 140.143 32.4046 140.143 31.76H139.143C139.143 32.6754 139.478 33.4654 140.136 34.0999L140.83 33.3801ZM140.143 31.76C140.143 31.0917 140.37 30.5669 140.823 30.1464L140.142 29.4136C139.475 30.0331 139.143 30.8283 139.143 31.76H140.143ZM140.823 30.1459C141.298 29.7039 141.911 29.47 142.703 29.47V28.47C141.695 28.47 140.827 28.7761 140.142 29.4141L140.823 30.1459ZM142.703 29.47C143.472 29.47 144.061 29.7018 144.516 30.1399L145.21 29.4201C144.544 28.7782 143.694 28.47 142.703 28.47V29.47ZM144.529 30.1523C145 30.5746 145.233 31.0977 145.233 31.76H146.233C146.233 30.8223 145.885 30.0254 145.196 29.4077L144.529 30.1523ZM145.233 31.76C145.233 32.3987 145.002 32.9269 144.522 33.3741L145.203 34.1059C145.883 33.4731 146.233 32.6813 146.233 31.76H145.233ZM144.522 33.3736C144.069 33.7947 143.477 34.02 142.703 34.02V35.02C143.688 35.02 144.536 34.7253 145.203 34.1064L144.522 33.3736ZM144.753 36.26V53H145.753V36.26H144.753ZM145.253 52.5H140.123V53.5H145.253V52.5ZM140.623 53V36.26H139.623V53H140.623ZM140.123 36.76H145.253V35.76H140.123V36.76ZM149 40.07L148.563 39.8277L148.56 39.8329L149 40.07ZM151.97 37.07L151.73 36.6313L151.728 36.6329L151.97 37.07ZM161.6 37.67L161.291 38.0632L161.294 38.0653L161.6 37.67ZM164.39 42.32V42.82H165.012L164.879 42.2126L164.39 42.32ZM158.93 42.32L158.46 42.4891L158.579 42.82H158.93V42.32ZM154.01 41.51L154.405 41.817L154.409 41.8117L154.01 41.51ZM154.01 47.78L153.612 48.0817L153.616 48.087L154.01 47.78ZM158.93 46.94V46.44H158.579L158.46 46.7709L158.93 46.94ZM164.39 46.94L164.878 47.0495L165.015 46.44H164.39V46.94ZM161.6 51.56L161.291 51.1674L161.291 51.1674L161.6 51.56ZM151.97 52.19L151.728 52.6271L151.73 52.6287L151.97 52.19ZM149 49.19L148.56 49.4271L148.563 49.4322L149 49.19ZM148.45 44.63C148.45 42.958 148.786 41.5222 149.441 40.307L148.56 39.8329C147.814 41.2178 147.45 42.822 147.45 44.63H148.45ZM149.438 40.3122C150.114 39.0915 151.038 38.1602 152.213 37.5071L151.728 36.6329C150.383 37.3798 149.327 38.4485 148.563 39.8277L149.438 40.3122ZM152.21 37.5087C153.408 36.8537 154.784 36.52 156.35 36.52V35.52C154.637 35.52 153.093 35.8863 151.73 36.6313L152.21 37.5087ZM156.35 36.52C158.359 36.52 159.995 37.0443 161.291 38.0632L161.909 37.2768C160.406 36.0957 158.541 35.52 156.35 35.52V36.52ZM161.294 38.0653C162.609 39.0836 163.483 40.5248 163.902 42.4274L164.879 42.2126C164.417 40.1152 163.432 38.4564 161.907 37.2747L161.294 38.0653ZM164.39 41.82H158.93V42.82H164.39V41.82ZM159.401 42.1509C159.145 41.4388 158.755 40.866 158.21 40.4741C157.664 40.0813 157.003 39.9 156.26 39.9V40.9C156.837 40.9 157.282 41.0387 157.626 41.2859C157.971 41.534 158.256 41.9212 158.46 42.4891L159.401 42.1509ZM156.26 39.9C155.166 39.9 154.268 40.3415 153.612 41.2083L154.409 41.8117C154.873 41.1985 155.475 40.9 156.26 40.9V39.9ZM153.616 41.203C152.961 42.0446 152.67 43.2111 152.67 44.63H153.67C153.67 43.3289 153.94 42.4154 154.405 41.817L153.616 41.203ZM152.67 44.63C152.67 46.0502 152.962 47.2227 153.612 48.0817L154.409 47.4783C153.939 46.8573 153.67 45.9298 153.67 44.63H152.67ZM153.616 48.087C154.274 48.933 155.172 49.36 156.26 49.36V48.36C155.469 48.36 154.867 48.067 154.405 47.473L153.616 48.087ZM156.26 49.36C157.003 49.36 157.664 49.1787 158.21 48.7859C158.755 48.394 159.145 47.8212 159.401 47.1091L158.46 46.7709C158.256 47.3388 157.971 47.726 157.626 47.9741C157.282 48.2213 156.837 48.36 156.26 48.36V49.36ZM158.93 47.44H164.39V46.44H158.93V47.44ZM163.902 46.8305C163.485 48.6917 162.611 50.1265 161.291 51.1674L161.91 51.9526C163.43 50.7535 164.416 49.1083 164.878 47.0495L163.902 46.8305ZM161.291 51.1674C159.972 52.2076 158.336 52.74 156.35 52.74V53.74C158.525 53.74 160.389 53.1524 161.91 51.9526L161.291 51.1674ZM156.35 52.74C154.784 52.74 153.408 52.4063 152.21 51.7513L151.73 52.6287C153.093 53.3737 154.637 53.74 156.35 53.74V52.74ZM152.213 51.7529C151.038 51.0998 150.114 50.1685 149.438 48.9477L148.563 49.4322C149.327 50.8115 150.383 51.8802 151.728 52.6271L152.213 51.7529ZM149.441 48.9529C148.786 47.7378 148.45 46.302 148.45 44.63H147.45C147.45 46.438 147.814 48.0422 148.56 49.427L149.441 48.9529ZM177.364 53L176.96 53.2939L177.11 53.5H177.364V53ZM172.264 45.98L172.669 45.6861L171.764 44.4411V45.98H172.264ZM172.264 53V53.5H172.764V53H172.264ZM167.134 53H166.634V53.5H167.134V53ZM167.134 30.8V30.3H166.634V30.8H167.134ZM172.264 30.8H172.764V30.3H172.264V30.8ZM172.264 43.07H171.764V44.5789L172.665 43.3686L172.264 43.07ZM177.334 36.26V35.76H177.083L176.933 35.9614L177.334 36.26ZM183.664 36.26L184.049 36.579L184.728 35.76H183.664V36.26ZM176.704 44.66L176.319 44.341L176.053 44.6625L176.322 44.982L176.704 44.66ZM183.724 53V53.5H184.799L184.107 52.678L183.724 53ZM177.769 52.7061L172.669 45.6861L171.86 46.2739L176.96 53.2939L177.769 52.7061ZM171.764 45.98V53H172.764V45.98H171.764ZM172.264 52.5H167.134V53.5H172.264V52.5ZM167.634 53V30.8H166.634V53H167.634ZM167.134 31.3H172.264V30.3H167.134V31.3ZM171.764 30.8V43.07H172.764V30.8H171.764ZM172.665 43.3686L177.735 36.5586L176.933 35.9614L171.863 42.7714L172.665 43.3686ZM177.334 36.76H183.664V35.76H177.334V36.76ZM183.279 35.941L176.319 44.341L177.089 44.979L184.049 36.579L183.279 35.941ZM176.322 44.982L183.342 53.322L184.107 52.678L177.087 44.338L176.322 44.982ZM183.724 52.5H177.364V53.5H183.724V52.5ZM210.277 31.94H210.777V31.44H210.277V31.94ZM210.277 53V53.5H210.777V53H210.277ZM205.147 53H204.647V53.5H205.147V53ZM205.147 44.33H205.647V43.83H205.147V44.33ZM197.167 44.33V43.83H196.667V44.33H197.167ZM197.167 53V53.5H197.667V53H197.167ZM192.037 53H191.537V53.5H192.037V53ZM192.037 31.94V31.44H191.537V31.94H192.037ZM197.167 31.94H197.667V31.44H197.167V31.94ZM197.167 40.19H196.667V40.69H197.167V40.19ZM205.147 40.19V40.69H205.647V40.19H205.147ZM205.147 31.94V31.44H204.647V31.94H205.147ZM209.777 31.94V53H210.777V31.94H209.777ZM210.277 52.5H205.147V53.5H210.277V52.5ZM205.647 53V44.33H204.647V53H205.647ZM205.147 43.83H197.167V44.83H205.147V43.83ZM196.667 44.33V53H197.667V44.33H196.667ZM197.167 52.5H192.037V53.5H197.167V52.5ZM192.537 53V31.94H191.537V53H192.537ZM192.037 32.44H197.167V31.44H192.037V32.44ZM196.667 31.94V40.19H197.667V31.94H196.667ZM197.167 40.69H205.147V39.69H197.167V40.69ZM205.647 40.19V31.94H204.647V40.19H205.647ZM205.147 32.44H210.277V31.44H205.147V32.44ZM229.67 45.86V46.36H230.116L230.167 45.9173L229.67 45.86ZM218.06 45.86V45.36H217.52L217.562 45.8983L218.06 45.86ZM219.05 48.26L218.703 48.6197L218.709 48.6258L218.716 48.6316L219.05 48.26ZM223.91 47.45V46.95H223.591L223.456 47.2399L223.91 47.45ZM229.37 47.45L229.855 47.5733L230.013 46.95H229.37V47.45ZM227.84 50.42L227.457 50.0982L227.453 50.1034L227.84 50.42ZM225.11 52.49L225.317 52.9452L225.11 52.49ZM217.04 52.19L216.8 52.6287L216.8 52.6287L217.04 52.19ZM214.04 49.19L214.478 48.9477L214.478 48.9477L214.04 49.19ZM214.01 40.07L213.573 39.8277L213.57 39.8329L214.01 40.07ZM217.01 37.07L217.25 37.5087L217.25 37.5087L217.01 37.07ZM225.74 37.04L225.503 37.48L225.503 37.48L225.74 37.04ZM228.68 39.95L228.243 40.1928L228.246 40.1981L228.68 39.95ZM224.51 43.01V43.51H225.01V43.01H224.51ZM223.61 40.91L223.938 40.5322L223.938 40.5322L223.61 40.91ZM219.17 40.88L218.85 40.4958L218.844 40.5013L219.17 40.88ZM218.09 43.01L217.596 42.9348L217.508 43.51H218.09V43.01ZM229.26 44.36C229.26 44.8192 229.231 45.3 229.173 45.8027L230.167 45.9173C230.229 45.38 230.26 44.8608 230.26 44.36H229.26ZM229.67 45.36H218.06V46.36H229.67V45.36ZM217.562 45.8983C217.648 47.0236 218.011 47.9522 218.703 48.6197L219.397 47.9003C218.929 47.4478 218.632 46.7764 218.559 45.8217L217.562 45.8983ZM218.716 48.6316C219.414 49.26 220.265 49.57 221.24 49.57V48.57C220.495 48.57 219.886 48.34 219.385 47.8884L218.716 48.6316ZM221.24 49.57C221.951 49.57 222.588 49.4197 223.127 49.0925C223.669 48.7638 224.078 48.2769 224.364 47.6601L223.456 47.2399C223.242 47.7031 222.957 48.0262 222.608 48.2375C222.258 48.4503 221.81 48.57 221.24 48.57V49.57ZM223.91 47.95H229.37V46.95H223.91V47.95ZM228.886 47.3267C228.624 48.3527 228.15 49.2751 227.457 50.0982L228.223 50.7418C229.011 49.8049 229.556 48.7473 229.855 47.5733L228.886 47.3267ZM227.453 50.1034C226.785 50.9203 225.938 51.5645 224.903 52.0348L225.317 52.9452C226.482 52.4155 227.455 51.6797 228.227 50.7366L227.453 50.1034ZM224.903 52.0348C223.876 52.5018 222.718 52.74 221.42 52.74V53.74C222.843 53.74 224.144 53.4782 225.317 52.9452L224.903 52.0348ZM221.42 52.74C219.853 52.74 218.478 52.4063 217.28 51.7513L216.8 52.6287C218.163 53.3737 219.707 53.74 221.42 53.74V52.74ZM217.28 51.7513C216.085 51.0977 215.153 50.1665 214.478 48.9477L213.603 49.4322C214.368 50.8135 215.435 51.8823 216.8 52.6287L217.28 51.7513ZM214.478 48.9477C213.805 47.7337 213.46 46.2998 213.46 44.63H212.46C212.46 46.4402 212.835 48.0463 213.603 49.4322L214.478 48.9477ZM213.46 44.63C213.46 42.958 213.796 41.5222 214.45 40.307L213.57 39.8329C212.824 41.2178 212.46 42.822 212.46 44.63H213.46ZM214.448 40.3122C215.123 39.0935 216.055 38.1623 217.25 37.5087L216.77 36.6313C215.405 37.3777 214.338 38.4465 213.573 39.8277L214.448 40.3122ZM217.25 37.5087C218.447 36.8542 219.832 36.52 221.42 36.52V35.52C219.688 35.52 218.133 35.8858 216.77 36.6313L217.25 37.5087ZM221.42 36.52C222.968 36.52 224.325 36.8443 225.503 37.48L225.978 36.6C224.635 35.8757 223.112 35.52 221.42 35.52V36.52ZM225.503 37.48C226.678 38.1144 227.589 39.0157 228.243 40.1928L229.117 39.7072C228.371 38.3643 227.322 37.3256 225.978 36.6L225.503 37.48ZM228.246 40.1981C228.916 41.3713 229.26 42.7531 229.26 44.36H230.26C230.26 42.6069 229.884 41.0487 229.114 39.7019L228.246 40.1981ZM225.01 43.01C225.01 42.0026 224.66 41.1581 223.938 40.5322L223.283 41.2878C223.76 41.7019 224.01 42.2574 224.01 43.01H225.01ZM223.938 40.5322C223.235 39.9228 222.363 39.63 221.36 39.63V40.63C222.157 40.63 222.786 40.8572 223.283 41.2878L223.938 40.5322ZM221.36 39.63C220.396 39.63 219.549 39.9133 218.85 40.4959L219.49 41.2641C219.991 40.8467 220.604 40.63 221.36 40.63V39.63ZM218.844 40.5013C218.155 41.095 217.75 41.9233 217.596 42.9348L218.584 43.0852C218.711 42.2567 219.025 41.665 219.497 41.2587L218.844 40.5013ZM218.09 43.51H224.51V42.51H218.09V43.51ZM237.596 39.05H237.096V40.732L238.015 39.3231L237.596 39.05ZM239.846 36.89L240.097 37.323L240.104 37.3187L239.846 36.89ZM242.846 36.08H243.346V35.58H242.846V36.08ZM242.846 41.51V42.01H243.346V41.51H242.846ZM238.556 42.35L238.879 42.7322L238.886 42.7263L238.556 42.35ZM237.596 53V53.5H238.096V53H237.596ZM232.466 53H231.966V53.5H232.466V53ZM232.466 36.26V35.76H231.966V36.26H232.466ZM237.596 36.26H238.096V35.76H237.596V36.26ZM238.015 39.3231C238.575 38.4651 239.268 37.8014 240.097 37.3229L239.596 36.4571C238.624 37.0186 237.818 37.7949 237.178 38.7769L238.015 39.3231ZM240.104 37.3187C240.922 36.8277 241.833 36.58 242.846 36.58V35.58C241.66 35.58 240.571 35.8723 239.589 36.4613L240.104 37.3187ZM242.346 36.08V41.51H243.346V36.08H242.346ZM242.846 41.01H241.436V42.01H242.846V41.01ZM241.436 41.01C240.095 41.01 238.995 41.3021 238.227 41.9737L238.886 42.7263C239.398 42.2779 240.218 42.01 241.436 42.01V41.01ZM238.234 41.9679C237.426 42.6499 237.096 43.7959 237.096 45.23H238.096C238.096 43.9041 238.407 43.1301 238.879 42.7321L238.234 41.9679ZM237.096 45.23V53H238.096V45.23H237.096ZM237.596 52.5H232.466V53.5H237.596V52.5ZM232.966 53V36.26H231.966V53H232.966ZM232.466 36.76H237.596V35.76H232.466V36.76ZM237.096 36.26V39.05H238.096V36.26H237.096ZM260.988 45.86V46.36H261.434L261.485 45.9173L260.988 45.86ZM249.378 45.86V45.36H248.839L248.88 45.8983L249.378 45.86ZM250.368 48.26L250.021 48.6197L250.027 48.6258L250.034 48.6316L250.368 48.26ZM255.228 47.45V46.95H254.909L254.775 47.2399L255.228 47.45ZM260.688 47.45L261.173 47.5733L261.332 46.95H260.688V47.45ZM259.158 50.42L258.776 50.0982L258.771 50.1034L259.158 50.42ZM256.428 52.49L256.635 52.9452L256.428 52.49ZM248.358 52.19L248.119 52.6287L248.119 52.6287L248.358 52.19ZM245.358 49.19L245.796 48.9477L245.796 48.9477L245.358 49.19ZM245.328 40.07L244.891 39.8277L244.888 39.8329L245.328 40.07ZM248.328 37.07L248.568 37.5087L248.568 37.5087L248.328 37.07ZM257.058 37.04L256.821 37.48L256.821 37.48L257.058 37.04ZM259.998 39.95L259.561 40.1928L259.564 40.1981L259.998 39.95ZM255.828 43.01V43.51H256.328V43.01H255.828ZM254.928 40.91L255.256 40.5322L255.256 40.5322L254.928 40.91ZM250.488 40.88L250.168 40.4958L250.162 40.5013L250.488 40.88ZM249.408 43.01L248.914 42.9348L248.827 43.51H249.408V43.01ZM260.578 44.36C260.578 44.8192 260.55 45.3 260.492 45.8027L261.485 45.9173C261.547 45.38 261.578 44.8608 261.578 44.36H260.578ZM260.988 45.36H249.378V46.36H260.988V45.36ZM248.88 45.8983C248.967 47.0236 249.33 47.9522 250.021 48.6197L250.716 47.9003C250.247 47.4478 249.95 46.7764 249.877 45.8217L248.88 45.8983ZM250.034 48.6316C250.732 49.26 251.584 49.57 252.558 49.57V48.57C251.813 48.57 251.205 48.34 250.703 47.8884L250.034 48.6316ZM252.558 49.57C253.269 49.57 253.906 49.4197 254.445 49.0925C254.987 48.7638 255.397 48.2769 255.682 47.6601L254.775 47.2399C254.56 47.7031 254.275 48.0262 253.927 48.2375C253.576 48.4503 253.128 48.57 252.558 48.57V49.57ZM255.228 47.95H260.688V46.95H255.228V47.95ZM260.204 47.3267C259.943 48.3527 259.468 49.2751 258.776 50.0982L259.541 50.7418C260.329 49.8049 260.874 48.7473 261.173 47.5733L260.204 47.3267ZM258.771 50.1034C258.103 50.9203 257.256 51.5645 256.222 52.0348L256.635 52.9452C257.801 52.4155 258.774 51.6797 259.545 50.7366L258.771 50.1034ZM256.222 52.0348C255.194 52.5018 254.036 52.74 252.738 52.74V53.74C254.161 53.74 255.463 53.4782 256.635 52.9452L256.222 52.0348ZM252.738 52.74C251.172 52.74 249.796 52.4063 248.598 51.7513L248.119 52.6287C249.481 53.3737 251.025 53.74 252.738 53.74V52.74ZM248.598 51.7513C247.403 51.0977 246.471 50.1665 245.796 48.9477L244.921 49.4322C245.686 50.8135 246.754 51.8823 248.119 52.6287L248.598 51.7513ZM245.796 48.9477C245.123 47.7337 244.778 46.2998 244.778 44.63H243.778C243.778 46.4402 244.154 48.0463 244.921 49.4322L245.796 48.9477ZM244.778 44.63C244.778 42.958 245.114 41.5222 245.769 40.307L244.888 39.8329C244.143 41.2178 243.778 42.822 243.778 44.63H244.778ZM245.766 40.3122C246.441 39.0935 247.373 38.1623 248.568 37.5087L248.089 36.6313C246.724 37.3777 245.656 38.4465 244.891 39.8277L245.766 40.3122ZM248.568 37.5087C249.765 36.8542 251.151 36.52 252.738 36.52V35.52C251.006 35.52 249.452 35.8858 248.089 36.6313L248.568 37.5087ZM252.738 36.52C254.287 36.52 255.643 36.8443 256.821 37.48L257.296 36.6C255.954 35.8757 254.43 35.52 252.738 35.52V36.52ZM256.821 37.48C257.996 38.1144 258.907 39.0157 259.561 40.1928L260.436 39.7072C259.69 38.3643 258.641 37.3256 257.296 36.6L256.821 37.48ZM259.564 40.1981C260.235 41.3713 260.578 42.7531 260.578 44.36H261.578C261.578 42.6069 261.202 41.0487 260.433 39.7019L259.564 40.1981ZM256.328 43.01C256.328 42.0026 255.978 41.1581 255.256 40.5322L254.601 41.2878C255.079 41.7019 255.328 42.2574 255.328 43.01H256.328ZM255.256 40.5322C254.553 39.9228 253.682 39.63 252.678 39.63V40.63C253.475 40.63 254.104 40.8572 254.601 41.2878L255.256 40.5322ZM252.678 39.63C251.714 39.63 250.868 39.9133 250.168 40.4959L250.809 41.2641C251.309 40.8467 251.923 40.63 252.678 40.63V39.63ZM250.162 40.5013C249.473 41.095 249.068 41.9233 248.914 42.9348L249.903 43.0852C250.029 42.2567 250.344 41.665 250.815 41.2587L250.162 40.5013ZM249.408 43.51H255.828V42.51H249.408V43.51ZM279.472 48.65H279.972V48.15H279.472V48.65ZM279.472 53V53.5H279.972V53H279.472ZM272.512 51.65L272.181 52.0245L272.185 52.0281L272.512 51.65ZM270.952 40.52H271.452V40.02H270.952V40.52ZM268.912 40.52H268.412V41.02H268.912V40.52ZM268.912 36.26V35.76H268.412V36.26H268.912ZM270.952 36.26V36.76H271.452V36.26H270.952ZM270.952 32.18V31.68H270.452V32.18H270.952ZM276.082 32.18H276.582V31.68H276.082V32.18ZM276.082 36.26H275.582V36.76H276.082V36.26ZM279.442 36.26H279.942V35.76H279.442V36.26ZM279.442 40.52V41.02H279.942V40.52H279.442ZM276.082 40.52V40.02H275.582V40.52H276.082ZM276.442 48.32L276.104 48.6886L276.104 48.6886L276.442 48.32ZM278.972 48.65V53H279.972V48.65H278.972ZM279.472 52.5H276.862V53.5H279.472V52.5ZM276.862 52.5C275.08 52.5 273.761 52.0693 272.839 51.2719L272.185 52.0281C273.344 53.0307 274.925 53.5 276.862 53.5V52.5ZM272.844 51.2755C271.954 50.4886 271.452 49.1669 271.452 47.18H270.452C270.452 49.3131 270.99 50.9714 272.181 52.0245L272.844 51.2755ZM271.452 47.18V40.52H270.452V47.18H271.452ZM270.952 40.02H268.912V41.02H270.952V40.02ZM269.412 40.52V36.26H268.412V40.52H269.412ZM268.912 36.76H270.952V35.76H268.912V36.76ZM271.452 36.26V32.18H270.452V36.26H271.452ZM270.952 32.68H276.082V31.68H270.952V32.68ZM275.582 32.18V36.26H276.582V32.18H275.582ZM276.082 36.76H279.442V35.76H276.082V36.76ZM278.942 36.26V40.52H279.942V36.26H278.942ZM279.442 40.02H276.082V41.02H279.442V40.02ZM275.582 40.52V47.24H276.582V40.52H275.582ZM275.582 47.24C275.582 47.8056 275.717 48.3331 276.104 48.6886L276.78 47.9514C276.688 47.8669 276.582 47.6744 276.582 47.24H275.582ZM276.104 48.6886C276.483 49.0361 277.04 49.15 277.642 49.15V48.15C277.124 48.15 276.881 48.0439 276.78 47.9514L276.104 48.6886ZM277.642 49.15H279.472V48.15H277.642V49.15ZM285.51 52.19L285.273 52.6302L285.275 52.6317L285.51 52.19ZM282.42 49.19L281.985 49.4374L281.988 49.4423L282.42 49.19ZM282.45 40.1L282.881 40.3524L282.883 40.3495L282.45 40.1ZM285.57 37.07L285.804 37.5117L285.804 37.5117L285.57 37.07ZM294.45 37.07L294.215 37.5117L294.215 37.5117L294.45 37.07ZM297.57 40.1L297.136 40.3495L297.138 40.3523L297.57 40.1ZM297.54 49.19L297.109 48.9356L297.108 48.9377L297.54 49.19ZM294.39 52.19L294.158 51.7468L294.155 51.7483L294.39 52.19ZM292.44 47.72L292.081 47.3714L292.076 47.3767L292.44 47.72ZM292.47 41.54L292.101 41.8779L292.106 41.8833L292.47 41.54ZM287.52 41.54L287.884 41.883L287.888 41.8779L287.52 41.54ZM287.49 47.72L287.116 48.0522L287.121 48.0579L287.49 47.72ZM289.95 52.74C288.383 52.74 286.985 52.4064 285.744 51.7483L285.275 52.6317C286.674 53.3736 288.236 53.74 289.95 53.74V52.74ZM285.747 51.7498C284.529 51.0942 283.566 50.16 282.851 48.9377L281.988 49.4423C282.793 50.82 283.89 51.8858 285.273 52.6302L285.747 51.7498ZM282.854 48.9427C282.164 47.7295 281.81 46.2976 281.81 44.63H280.81C280.81 46.4424 281.196 48.0505 281.985 49.4373L282.854 48.9427ZM281.81 44.63C281.81 42.9859 282.172 41.5654 282.881 40.3523L282.018 39.8477C281.207 41.2346 280.81 42.8341 280.81 44.63H281.81ZM282.883 40.3495C283.597 39.1093 284.569 38.1668 285.804 37.5117L285.335 36.6283C283.931 37.3732 282.822 38.4507 282.016 39.8505L282.883 40.3495ZM285.804 37.5117C287.045 36.8536 288.443 36.52 290.01 36.52V35.52C288.296 35.52 286.734 35.8864 285.335 36.6283L285.804 37.5117ZM290.01 36.52C291.576 36.52 292.974 36.8536 294.215 37.5117L294.684 36.6283C293.285 35.8864 291.723 35.52 290.01 35.52V36.52ZM294.215 37.5117C295.451 38.1668 296.422 39.1093 297.136 40.3495L298.003 39.8505C297.197 38.4507 296.089 37.3732 294.684 36.6283L294.215 37.5117ZM297.138 40.3523C297.847 41.5654 298.21 42.9859 298.21 44.63H299.21C299.21 42.8341 298.812 41.2346 298.001 39.8477L297.138 40.3523ZM298.21 44.63C298.21 46.2717 297.838 47.7017 297.109 48.9356L297.97 49.4444C298.801 48.0383 299.21 46.4283 299.21 44.63H298.21ZM297.108 48.9377C296.396 50.1562 295.415 51.0902 294.158 51.7468L294.621 52.6332C296.044 51.8898 297.164 50.8238 297.971 49.4423L297.108 48.9377ZM294.155 51.7483C292.914 52.4064 291.516 52.74 289.95 52.74V53.74C291.663 53.74 293.225 53.3736 294.624 52.6317L294.155 51.7483ZM289.95 49.3C291.069 49.3 292.03 48.8821 292.803 48.0633L292.076 47.3767C291.49 47.9979 290.791 48.3 289.95 48.3V49.3ZM292.798 48.0685C293.616 47.2274 293.99 46.0554 293.99 44.63H292.99C292.99 45.8846 292.663 46.7726 292.081 47.3715L292.798 48.0685ZM293.99 44.63C293.99 43.2083 293.628 42.0382 292.833 41.1967L292.106 41.8833C292.671 42.4818 292.99 43.3717 292.99 44.63H293.99ZM292.838 41.2021C292.083 40.3784 291.129 39.96 290.01 39.96V40.96C290.85 40.96 291.536 41.2616 292.101 41.8779L292.838 41.2021ZM290.01 39.96C288.873 39.96 287.908 40.3761 287.151 41.2021L287.888 41.8779C288.451 41.2639 289.146 40.96 290.01 40.96V39.96ZM287.156 41.197C286.378 42.0222 286.03 43.1953 286.03 44.63H287.03C287.03 43.3447 287.342 42.4578 287.884 41.883L287.156 41.197ZM286.03 44.63C286.03 46.0446 286.368 47.2103 287.116 48.0522L287.863 47.3878C287.332 46.7897 287.03 45.8954 287.03 44.63H286.03ZM287.121 48.0579C287.876 48.8816 288.83 49.3 289.95 49.3V48.3C289.109 48.3 288.423 47.9984 287.858 47.3821L287.121 48.0579ZM320.989 31.94H321.489V31.44H320.989V31.94ZM319.099 51.41L318.754 51.0479L318.751 51.0507L319.099 51.41ZM308.719 51.32L308.376 51.6843L308.376 51.6843L308.719 51.32ZM306.709 45.95V45.45H306.209V45.95H306.709ZM311.809 45.95H312.309V45.45H311.809V45.95ZM312.349 47.96L311.955 48.2682L311.962 48.2766L312.349 47.96ZM315.349 48.02L314.968 47.6962L314.968 47.6962L315.349 48.02ZM315.859 31.94V31.44H315.359V31.94H315.859ZM320.489 31.94V46.28H321.489V31.94H320.489ZM320.489 46.28C320.489 48.4031 319.889 49.9667 318.754 51.0479L319.444 51.7721C320.828 50.4533 321.489 48.5969 321.489 46.28H320.489ZM318.751 51.0507C317.625 52.1408 316.08 52.71 314.059 52.71V53.71C316.277 53.71 318.093 53.0792 319.446 51.7693L318.751 51.0507ZM314.059 52.71C311.938 52.71 310.29 52.1112 309.061 50.9557L308.376 51.6843C309.827 53.0488 311.739 53.71 314.059 53.71V52.71ZM309.061 50.9557C307.847 49.8136 307.209 48.1704 307.209 45.95H306.209C306.209 48.3696 306.911 50.3064 308.376 51.6843L309.061 50.9557ZM306.709 46.45H311.809V45.45H306.709V46.45ZM311.309 45.95C311.309 46.8877 311.499 47.6855 311.955 48.2682L312.742 47.6518C312.478 47.3145 312.309 46.7723 312.309 45.95H311.309ZM311.962 48.2766C312.436 48.8557 313.111 49.12 313.909 49.12V48.12C313.346 48.12 312.982 47.9442 312.736 47.6434L311.962 48.2766ZM313.909 49.12C314.646 49.12 315.277 48.8762 315.73 48.3438L314.968 47.6962C314.74 47.9638 314.411 48.12 313.909 48.12V49.12ZM315.73 48.3438C316.175 47.8204 316.359 47.1066 316.359 46.28H315.359C315.359 46.9734 315.203 47.4196 314.968 47.6962L315.73 48.3438ZM316.359 46.28V31.94H315.359V46.28H316.359ZM315.859 32.44H320.989V31.44H315.859V32.44ZM328.312 52.19L328.075 52.6302L328.078 52.6317L328.312 52.19ZM325.222 49.19L324.788 49.4374L324.791 49.4423L325.222 49.19ZM325.252 40.1L325.684 40.3524L325.686 40.3495L325.252 40.1ZM328.372 37.07L328.607 37.5117L328.607 37.5117L328.372 37.07ZM337.252 37.07L337.018 37.5117L337.018 37.5117L337.252 37.07ZM340.372 40.1L339.939 40.3495L339.941 40.3523L340.372 40.1ZM340.342 49.19L339.912 48.9356L339.911 48.9377L340.342 49.19ZM337.192 52.19L336.961 51.7468L336.958 51.7483L337.192 52.19ZM335.242 47.72L334.884 47.3714L334.879 47.3767L335.242 47.72ZM335.272 41.54L334.904 41.8779L334.909 41.8833L335.272 41.54ZM330.322 41.54L330.686 41.883L330.691 41.8779L330.322 41.54ZM330.292 47.72L329.919 48.0522L329.924 48.0579L330.292 47.72ZM332.752 52.74C331.186 52.74 329.788 52.4064 328.547 51.7483L328.078 52.6317C329.477 53.3736 331.039 53.74 332.752 53.74V52.74ZM328.55 51.7498C327.332 51.0942 326.369 50.16 325.654 48.9377L324.791 49.4423C325.596 50.82 326.693 51.8858 328.075 52.6302L328.55 51.7498ZM325.657 48.9427C324.966 47.7295 324.612 46.2976 324.612 44.63H323.612C323.612 46.4424 323.998 48.0505 324.788 49.4373L325.657 48.9427ZM324.612 44.63C324.612 42.9859 324.975 41.5654 325.684 40.3523L324.821 39.8477C324.01 41.2346 323.612 42.8341 323.612 44.63H324.612ZM325.686 40.3495C326.4 39.1093 327.372 38.1668 328.607 37.5117L328.138 36.6283C326.733 37.3732 325.625 38.4507 324.819 39.8505L325.686 40.3495ZM328.607 37.5117C329.848 36.8536 331.246 36.52 332.812 36.52V35.52C331.099 35.52 329.537 35.8864 328.138 36.6283L328.607 37.5117ZM332.812 36.52C334.379 36.52 335.777 36.8536 337.018 37.5117L337.487 36.6283C336.088 35.8864 334.526 35.52 332.812 35.52V36.52ZM337.018 37.5117C338.253 38.1668 339.225 39.1093 339.939 40.3495L340.806 39.8505C340 38.4507 338.892 37.3732 337.487 36.6283L337.018 37.5117ZM339.941 40.3523C340.65 41.5654 341.012 42.9859 341.012 44.63H342.012C342.012 42.8341 341.615 41.2346 340.804 39.8477L339.941 40.3523ZM341.012 44.63C341.012 46.2717 340.641 47.7017 339.912 48.9356L340.773 49.4444C341.604 48.0383 342.012 46.4283 342.012 44.63H341.012ZM339.911 48.9377C339.198 50.1562 338.218 51.0902 336.961 51.7468L337.424 52.6332C338.847 51.8898 339.966 50.8238 340.774 49.4423L339.911 48.9377ZM336.958 51.7483C335.717 52.4064 334.319 52.74 332.752 52.74V53.74C334.466 53.74 336.028 53.3736 337.427 52.6317L336.958 51.7483ZM332.752 49.3C333.872 49.3 334.833 48.8821 335.606 48.0633L334.879 47.3767C334.292 47.9979 333.593 48.3 332.752 48.3V49.3ZM335.601 48.0685C336.419 47.2274 336.792 46.0554 336.792 44.63H335.792C335.792 45.8846 335.466 46.7726 334.884 47.3715L335.601 48.0685ZM336.792 44.63C336.792 43.2083 336.431 42.0382 335.636 41.1967L334.909 41.8833C335.474 42.4818 335.792 43.3717 335.792 44.63H336.792ZM335.641 41.2021C334.886 40.3784 333.932 39.96 332.812 39.96V40.96C333.653 40.96 334.339 41.2616 334.904 41.8779L335.641 41.2021ZM332.812 39.96C331.676 39.96 330.711 40.3761 329.954 41.2021L330.691 41.8779C331.254 41.2639 331.949 40.96 332.812 40.96V39.96ZM329.959 41.197C329.181 42.0222 328.832 43.1953 328.832 44.63H329.832C329.832 43.3447 330.144 42.4578 330.686 41.883L329.959 41.197ZM328.832 44.63C328.832 46.0446 329.17 47.2103 329.919 48.0522L330.666 47.3878C330.135 46.7897 329.832 45.8954 329.832 44.63H328.832ZM329.924 48.0579C330.679 48.8816 331.633 49.3 332.752 49.3V48.3C331.912 48.3 331.226 47.9984 330.661 47.3821L329.924 48.0579ZM344.594 33.74L344.247 34.0999L344.253 34.1062L344.26 34.1123L344.594 33.74ZM344.594 29.78L344.934 30.1464L344.935 30.1459L344.594 29.78ZM348.974 29.78L348.627 30.1399L348.633 30.1462L348.64 30.1523L348.974 29.78ZM348.974 33.74L349.314 34.1064L349.315 34.1059L348.974 33.74ZM349.364 36.26H349.864V35.76H349.364V36.26ZM349.364 53V53.5H349.864V53H349.364ZM344.234 53H343.734V53.5H344.234V53ZM344.234 36.26V35.76H343.734V36.26H344.234ZM346.814 34.02C346.017 34.02 345.402 33.7928 344.928 33.3677L344.26 34.1123C344.946 34.7272 345.811 35.02 346.814 35.02V34.02ZM344.941 33.3801C344.479 32.9346 344.254 32.4046 344.254 31.76H343.254C343.254 32.6754 343.589 33.4654 344.247 34.0999L344.941 33.3801ZM344.254 31.76C344.254 31.0917 344.481 30.5669 344.934 30.1464L344.254 29.4136C343.587 30.0331 343.254 30.8283 343.254 31.76H344.254ZM344.935 30.1459C345.41 29.7039 346.022 29.47 346.814 29.47V28.47C345.806 28.47 344.939 28.7761 344.253 29.4141L344.935 30.1459ZM346.814 29.47C347.583 29.47 348.173 29.7018 348.627 30.1399L349.321 29.4201C348.655 28.7782 347.805 28.47 346.814 28.47V29.47ZM348.64 30.1523C349.111 30.5746 349.344 31.0977 349.344 31.76H350.344C350.344 30.8223 349.997 30.0254 349.308 29.4077L348.64 30.1523ZM349.344 31.76C349.344 32.3987 349.114 32.9269 348.633 33.3741L349.315 34.1059C349.994 33.4731 350.344 32.6813 350.344 31.76H349.344ZM348.634 33.3736C348.18 33.7947 347.588 34.02 346.814 34.02V35.02C347.8 35.02 348.648 34.7253 349.314 34.1064L348.634 33.3736ZM348.864 36.26V53H349.864V36.26H348.864ZM349.364 52.5H344.234V53.5H349.364V52.5ZM344.734 53V36.26H343.734V53H344.734ZM344.234 36.76H349.364V35.76H344.234V36.76ZM367.962 38L367.591 38.3358L367.597 38.3418L367.962 38ZM369.732 53V53.5H370.232V53H369.732ZM364.632 53H364.132V53.5H364.632V53ZM363.762 41.3L363.397 41.6416L363.397 41.6416L363.762 41.3ZM359.082 41.3L359.447 41.6416L359.447 41.6416L359.082 41.3ZM358.212 53V53.5H358.712V53H358.212ZM353.082 53H352.582V53.5H353.082V53ZM353.082 36.26V35.76H352.582V36.26H353.082ZM358.212 36.26H358.712V35.76H358.212V36.26ZM358.212 38.48H357.712V40.0612L358.621 38.7675L358.212 38.48ZM360.312 36.74L360.527 37.1913L360.535 37.1872L360.312 36.74ZM363.282 36.58C365.122 36.58 366.539 37.175 367.591 38.3358L368.332 37.6642C367.064 36.265 365.362 35.58 363.282 35.58V36.58ZM367.597 38.3418C368.667 39.4849 369.232 41.0893 369.232 43.22H370.232C370.232 40.9107 369.616 39.0351 368.327 37.6582L367.597 38.3418ZM369.232 43.22V53H370.232V43.22H369.232ZM369.732 52.5H364.632V53.5H369.732V52.5ZM365.132 53V43.91H364.132V53H365.132ZM365.132 43.91C365.132 42.7047 364.818 41.6975 364.127 40.9584L363.397 41.6416C363.865 42.1425 364.132 42.8753 364.132 43.91H365.132ZM364.127 40.9584C363.437 40.2215 362.517 39.87 361.422 39.87V40.87C362.287 40.87 362.926 41.1385 363.397 41.6416L364.127 40.9584ZM361.422 39.87C360.327 39.87 359.406 40.2215 358.717 40.9584L359.447 41.6416C359.917 41.1385 360.557 40.87 361.422 40.87V39.87ZM358.717 40.9584C358.025 41.6975 357.712 42.7047 357.712 43.91H358.712C358.712 42.8753 358.978 42.1425 359.447 41.6416L358.717 40.9584ZM357.712 43.91V53H358.712V43.91H357.712ZM358.212 52.5H353.082V53.5H358.212V52.5ZM353.582 53V36.26H352.582V53H353.582ZM353.082 36.76H358.212V35.76H353.082V36.76ZM357.712 36.26V38.48H358.712V36.26H357.712ZM358.621 38.7675C359.088 38.1033 359.718 37.5772 360.527 37.1912L360.096 36.2888C359.145 36.7428 358.376 37.3767 357.803 38.1925L358.621 38.7675ZM360.535 37.1872C361.338 36.7858 362.25 36.58 363.282 36.58V35.58C362.113 35.58 361.045 35.8142 360.088 36.2928L360.535 37.1872Z" fill="#FFB696" fill-opacity="0.51"/>
<defs>
<filter id="filter0_di_293_228" x="20.1318" y="4" width="437.085" height="86" filterUnits="userSpaceOnUse" color-interpolation-filters="sRGB">
<feFlood flood-opacity="0" result="BackgroundImageFix"/>
<feColorMatrix in="SourceAlpha" type="matrix" values="0 0 0 0 0 0 0 0 0 0 0 0 0 0 0 0 0 0 127 0" result="hardAlpha"/>
<feOffset dy="4"/>
<feGaussianBlur stdDeviation="5"/>
<feComposite in2="hardAlpha" operator="out"/>
<feColorMatrix type="matrix" values="0 0 0 0 0.0811806 0 0 0 0 0.0878317 0 0 0 0 0.583333 0 0 0 1 0"/>
<feBlend mode="normal" in2="BackgroundImageFix" result="effect1_dropShadow_293_228"/>
<feBlend mode="normal" in="SourceGraphic" in2="effect1_dropShadow_293_228" result="shape"/>
<feColorMatrix in="SourceAlpha" type="matrix" values="0 0 0 0 0 0 0 0 0 0 0 0 0 0 0 0 0 0 127 0" result="hardAlpha"/>
<feOffset dy="4"/>
<feGaussianBlur stdDeviation="5"/>
<feComposite in2="hardAlpha" operator="arithmetic" k2="-1" k3="1"/>
<feColorMatrix type="matrix" values="0 0 0 0 0 0 0 0 0 0 0 0 0 0 0 0 0 0 0.25 0"/>
<feBlend mode="normal" in2="shape" result="effect2_innerShadow_293_228"/>
</filter>
<filter id="filter1_di_293_228" x="0.131836" y="0" width="477.085" height="126" filterUnits="userSpaceOnUse" color-interpolation-filters="sRGB">
<feFlood flood-opacity="0" result="BackgroundImageFix"/>
<feColorMatrix in="SourceAlpha" type="matrix" values="0 0 0 0 0 0 0 0 0 0 0 0 0 0 0 0 0 0 127 0" result="hardAlpha"/>
<feOffset dy="20"/>
<feGaussianBlur stdDeviation="15"/>
<feComposite in2="hardAlpha" operator="out"/>
<feColorMatrix type="matrix" values="0 0 0 0 0.336164 0 0 0 0 0.329594 0 0 0 0 0.6625 0 0 0 1 0"/>
<feBlend mode="normal" in2="BackgroundImageFix" result="effect1_dropShadow_293_228"/>
<feBlend mode="normal" in="SourceGraphic" in2="effect1_dropShadow_293_228" result="shape"/>
<feColorMatrix in="SourceAlpha" type="matrix" values="0 0 0 0 0 0 0 0 0 0 0 0 0 0 0 0 0 0 127 0" result="hardAlpha"/>
<feOffset dy="4"/>
<feGaussianBlur stdDeviation="5"/>
<feComposite in2="hardAlpha" operator="arithmetic" k2="-1" k3="1"/>
<feColorMatrix type="matrix" values="0 0 0 0 0 0 0 0 0 0 0 0 0 0 0 0 0 0 0.25 0"/>
<feBlend mode="normal" in2="shape" result="effect2_innerShadow_293_228"/>
</filter>
<filter id="filter2_i_293_228" x="107.554" y="28.9702" width="262.178" height="28.27" filterUnits="userSpaceOnUse" color-interpolation-filters="sRGB">
<feFlood flood-opacity="0" result="BackgroundImageFix"/>
<feBlend mode="normal" in="SourceGraphic" in2="BackgroundImageFix" result="shape"/>
<feColorMatrix in="SourceAlpha" type="matrix" values="0 0 0 0 0 0 0 0 0 0 0 0 0 0 0 0 0 0 127 0" result="hardAlpha"/>
<feOffset dy="4"/>
<feGaussianBlur stdDeviation="2"/>
<feComposite in2="hardAlpha" operator="arithmetic" k2="-1" k3="1"/>
<feColorMatrix type="matrix" values="0 0 0 0 0 0 0 0 0 0 0 0 0 0 0 0 0 0 0.25 0"/>
<feBlend mode="normal" in2="shape" result="effect1_innerShadow_293_228"/>
</filter>
<linearGradient id="paint0_linear_293_228" x1="136.985" y1="10" x2="347.218" y2="73.0102" gradientUnits="userSpaceOnUse">
<stop stop-color="white" stop-opacity="0.3"/>
<stop offset="1" stop-color="white" stop-opacity="0.1"/>
</linearGradient>
<linearGradient id="paint1_linear_293_228" x1="113.946" y1="15.2963" x2="361.286" y2="73.1586" gradientUnits="userSpaceOnUse">
<stop stop-color="#EA9B78"/>
<stop offset="1" stop-color="#FF9A6E" stop-opacity="0"/>
</linearGradient>
</defs>
</svg>
